<svg width="48" height="48" viewBox="0 0 48 48" fill="none" xmlns="http://www.w3.org/2000/svg">
<path opacity="0.1" fill-rule="evenodd" clip-rule="evenodd" d="M24 48C37.2548 48 48 37.2548 48 24C48 10.7452 37.2548 0 24 0C10.7452 0 0 10.7452 0 24C0 37.2548 10.7452 48 24 48Z" fill="#F17685"/>
<path fill-rule="evenodd" clip-rule="evenodd" d="M11.64 0.82V2.5H0V0.82H2.9L3.76 0H7.9L8.76 0.82H11.64ZM0.820068 13.32V3.32001H10.8201V13.32C10.8201 13.7733 10.6534 14.1667 10.3201 14.5C9.98673 14.8333 9.5934 15 9.14007 15H2.50007C2.04673 15 1.6534 14.8333 1.32007 14.5C0.986733 14.1667 0.820068 13.7733 0.820068 13.32Z" transform="translate(18.1799 16.5)" fill="#F17685"/>
</svg>
