<svg width="17" height="17" viewBox="0 0 17 17" fill="none" xmlns="http://www.w3.org/2000/svg">
<path fill-rule="evenodd" clip-rule="evenodd" d="M0.439209 0.439331C-0.146484 1.02512 -0.146484 1.97488 0.439209 2.56067L5.74268 7.86407L0.439453 13.1673C-0.14624 13.7531 -0.14624 14.7028 0.439453 15.2886C1.02515 15.8744 1.9751 15.8744 2.56079 15.2886L7.86401 9.98535L13.1672 15.2886C13.7529 15.8744 14.7029 15.8744 15.2886 15.2886C15.8743 14.7028 15.8743 13.7531 15.2886 13.1673L9.98535 7.86401L15.2886 2.56067C15.8745 1.97488 15.8745 1.02515 15.2886 0.439362C14.7029 -0.146423 13.7532 -0.146423 13.1675 0.439362L7.86401 5.74277L2.56055 0.439331C1.97485 -0.146454 1.02515 -0.146454 0.439209 0.439331Z" transform="translate(0.635986 0.636047)" fill="#F17685"/>
</svg>
