<svg width="18" height="18" viewBox="0 0 18 18" fill="none" xmlns="http://www.w3.org/2000/svg">
<path fill-rule="evenodd" clip-rule="evenodd" d="M13.8359 0.0114746C13.8359 0.0114746 14.9189 -0.204529 16.3611 1.23846C17.7668 2.64447 17.5981 3.70825 17.5894 3.76324L17.5891 3.76547L11.5371 9.81747L4.76294 16.5885L0 17.5985L1.01001 12.8365L7.78394 6.06348L13.8359 0.0114746ZM2.85596 16.3665L4.47998 16.0164L4.95093 15.5485C4.95093 15.5485 4.93188 14.6635 3.93481 13.6674C2.93677 12.6695 2.05396 12.6515 2.05396 12.6515L1.58398 13.1205L1.23389 14.7435C1.52686 14.9015 1.81982 15.0885 2.16577 15.4344C2.51099 15.7805 2.69995 16.0735 2.85596 16.3665Z" transform="translate(0.199951 0.200531)" fill="#7ED321"/>
</svg>
