<svg width="18" height="12" viewBox="0 0 18 12" fill="none" xmlns="http://www.w3.org/2000/svg">
<path fill-rule="evenodd" clip-rule="evenodd" d="M8.07422 5.315L0.574219 1.28601C0.0861816 1.02301 -0.375977 0 0.520996 0H17.4402C18.3372 0 17.875 1.02301 17.3862 1.28601L9.88623 5.315C9.63403 5.45001 9.30811 5.51398 8.98022 5.51398C8.6521 5.51398 8.32617 5.45001 8.07422 5.315ZM9.88599 7.51599C10.2261 7.33801 17.0581 3.77802 17.613 3.48901C18 3.28705 18 3.51935 18 3.70258V3.70801V11C18 11.42 17.4341 12 17 12H1C0.565918 12 0 11.42 0 11V3.70703V3.7016C0 3.51837 0 3.28601 0.385986 3.48804C0.78833 3.69757 4.46899 5.62671 6.59302 6.73987L8.07397 7.51599C8.41406 7.69403 8.6521 7.71503 8.97998 7.71503C9.30811 7.71503 9.5459 7.69403 9.88599 7.51599Z" fill="#F17685"/>
</svg>
