<svg width="18" height="12" viewBox="0 0 18 12" fill="none" xmlns="http://www.w3.org/2000/svg">
<path fill-rule="evenodd" clip-rule="evenodd" d="M2.1709 2.1438L0.574219 1.28601C0.0861816 1.02301 -0.375977 0 0.520996 0H17.4402C18.3372 0 17.875 1.02301 17.3862 1.28601L14.2961 2.94598L9.88623 5.315C9.63403 5.45001 9.30811 5.51401 8.98022 5.51401C8.6521 5.51401 8.32617 5.45001 8.07422 5.315C7.89233 5.21768 4.32886 3.30319 2.1709 2.1438ZM9.88599 7.51602C10.2261 7.33801 17.0581 3.77802 17.613 3.48901C18 3.28699 18 3.51938 18 3.70261V3.70801V11C18 11.42 17.4341 12 17 12H1C0.565918 12 0 11.42 0 11V3.707V3.70157C0 3.51837 0 3.28601 0.385986 3.48801C0.794434 3.70068 4.58081 5.68521 6.68799 6.78961L8.07397 7.51602C8.41406 7.694 8.6521 7.71503 8.97998 7.71503C9.30811 7.71503 9.5459 7.694 9.88599 7.51602Z" fill="#999999"/>
</svg>
